<?xml version="1.0" standalone="no"?>
<!DOCTYPE svg PUBLIC "-//W3C//DTD SVG 20010904//EN"
 "http://www.w3.org/TR/2001/REC-SVG-20010904/DTD/svg10.dtd">
<svg version="1.0" xmlns="http://www.w3.org/2000/svg"
 width="300px" height="260px">

<g transform="translate(0.000000,260.000000) scale(0.100000,-0.100000)"
fill="#27ae60" stroke="none">
<path d="M1100 2586 c-297 -54 -530 -175 -732 -382 -176 -181 -290 -397 -345
-654 -25 -119 -25 -381 0 -500 55 -258 163 -462 343 -649 188 -196 402 -315
684 -378 109 -24 386 -24 500 0 259 56 465 165 651 344 196 190 317 409 376
683 25 119 25 381 0 500 -59 275 -181 495 -378 684 -184 177 -389 287 -639
341 -103 22 -363 28 -460 11z m175 -100 c15 -23 15 -28 -10 -76 l-26 -51 -39
50 c-22 28 -49 55 -61 62 -29 15 -13 27 41 32 25 2 53 4 62 5 10 1 25 -9 33
-22z m43 12 c-6 -18 -25 -20 -31 -3 -5 10 0 15 14 15 12 0 19 -5 17 -12z m151
-4 l24 -5 -30 -19 c-17 -10 -47 -39 -66 -65 l-36 -46 -26 51 c-25 49 -25 53
-10 76 14 22 20 24 68 19 29 -4 63 -8 76 -11z m-344 -35 c36 -44 63 -100 71
-148 8 -53 -10 -61 -71 -31 -46 22 -88 72 -119 141 l-15 34 5 -40 c10 -67 52
-147 106 -202 29 -29 50 -55 47 -58 -3 -2 -19 -7 -35 -11 -28 -5 -34 -1 -82
65 -63 83 -118 133 -186 165 l-50 24 39 16 c55 23 217 71 252 75 6 0 23 -13
38 -30z m521 -5 c44 -13 98 -31 119 -40 l39 -16 -50 -24 c-68 -32 -123 -82
-186 -165 -48 -66 -54 -70 -82 -65 -16 4 -32 9 -35 11 -3 3 17 26 43 52 52 49
101 141 111 208 l6 40 -26 -51 c-32 -66 -85 -119 -131 -134 -30 -10 -38 -10
-45 1 -20 30 14 125 67 188 30 36 32 36 170 -5z m-322 -84 c9 -33 20 -97 23
-143 5 -70 2 -94 -16 -150 -13 -37 -26 -67 -30 -67 -4 0 -18 33 -31 74 -19 63
-22 86 -16 153 7 82 34 193 46 193 4 0 15 -27 24 -60z m-479 -34 c52 -46 125
-150 113 -161 -8 -8 -138 54 -206 98 -40 26 -76 47 -79 47 -4 0 15 -23 42 -51
89 -92 279 -201 389 -223 l61 -13 3 -129 3 -129 -33 40 c-69 86 -180 181 -258
220 -25 13 -80 30 -121 39 -81 17 -101 32 -120 96 -16 51 -4 125 24 151 19 18
103 67 117 68 3 1 32 -23 65 -53z m1023 29 c26 -13 55 -31 64 -38 41 -32 49
-116 18 -184 -21 -47 -40 -59 -111 -68 -109 -14 -267 -123 -377 -260 l-33 -40
3 129 3 129 61 13 c67 13 175 64 274 129 67 44 173 145 153 145 -7 0 -14 -4
-17 -9 -17 -26 -266 -154 -266 -136 0 24 54 101 107 153 36 34 67 62 69 62 3
0 26 -11 52 -25z m-1259 -107 c-15 -30 -21 -58 -20 -104 l1 -62 -47 -7 c-66
-10 -143 -40 -192 -75 -23 -17 -41 -27 -41 -23 0 13 82 111 147 174 61 60 157
139 169 139 2 0 -5 -19 -17 -42z m1441 -14 c79 -61 258 -254 236 -254 -4 0
-24 11 -45 25 -49 33 -123 61 -183 70 l-47 7 1 62 c1 46 -4 72 -21 105 -25 48
-21 47 59 -15z m-1337 -243 c66 -23 187 -105 187 -126 0 -16 -44 -49 -84 -65
-25 -9 -33 -5 -84 37 -93 75 -170 107 -277 111 -50 2 -107 0 -128 -6 -20 -6
-37 -9 -37 -6 0 9 109 58 155 71 67 17 195 10 268 -16z m1429 18 c50 -11 142
-50 162 -69 5 -5 -8 -4 -30 1 -21 6 -80 9 -130 7 -81 -3 -100 -8 -165 -40 -41
-20 -93 -55 -117 -78 -33 -32 -47 -40 -65 -35 -32 10 -97 56 -97 69 0 7 21 28
48 48 123 93 256 126 394 97z m-1620 -136 c86 -41 150 -86 137 -97 -9 -8 -139
14 -191 34 -31 11 -83 38 -117 60 -34 22 -61 36 -61 31 0 -4 26 -33 58 -63
105 -100 220 -142 392 -142 102 0 128 6 232 49 13 5 21 -2 33 -31 16 -38 33
-154 23 -154 -3 0 -30 11 -61 25 -141 62 -296 75 -430 35 -89 -27 -127 -23
-186 20 -45 33 -77 88 -87 149 -7 44 3 134 15 127 4 -3 13 0 21 5 30 20 123 0
222 -48z m1795 45 c17 -2 27 -58 21 -117 -6 -65 -36 -119 -87 -158 -59 -45
-97 -50 -187 -23 -131 39 -293 26 -429 -35 -32 -14 -60 -25 -63 -25 -2 0 -1
27 2 61 7 57 32 129 46 129 3 0 24 -9 46 -19 45 -22 138 -41 201 -41 69 0 192
28 261 60 57 27 182 130 182 151 0 5 -27 -9 -61 -31 -34 -22 -86 -49 -117 -60
-52 -20 -182 -42 -191 -34 -18 16 167 124 245 143 33 8 73 8 131 -1z m-2070
-83 c-7 -39 -7 -74 1 -117 10 -54 9 -64 -4 -71 -30 -17 -88 -72 -106 -102 -17
-29 -18 -29 -18 -6 0 49 115 351 133 351 2 0 -1 -25 -6 -55z m2199 -169 c18
-57 34 -111 34 -120 0 -10 -20 5 -52 38 -29 29 -61 57 -71 63 -16 8 -16 15 -6
63 6 30 9 81 6 114 l-6 61 30 -58 c16 -32 46 -105 65 -161z m-2125 -109 l26
-32 -53 -60 c-93 -103 -138 -207 -158 -365 l-12 -95 -14 85 c-16 93 -19 265
-7 321 13 61 62 125 119 153 29 14 57 26 62 26 6 0 23 -15 37 -33z m2079 -5
c33 -21 52 -43 75 -87 29 -58 30 -61 28 -194 -2 -134 -29 -323 -32 -223 -4
142 -72 316 -164 417 l-55 60 27 32 c31 38 52 37 121 -5z m-1619 -72 c133 -41
259 -159 324 -300 25 -56 30 -80 33 -170 8 -215 -69 -382 -221 -483 -89 -59
-165 -80 -283 -75 -93 3 -107 6 -176 41 -124 61 -213 175 -283 362 -73 193 35
481 216 580 124 67 267 84 390 45z m1310 4 c181 -53 304 -189 344 -379 23
-110 19 -174 -15 -263 -70 -180 -163 -296 -288 -355 -64 -30 -73 -32 -187 -32
-118 0 -121 1 -199 38 -180 86 -286 266 -286 487 0 147 40 246 143 356 106
115 210 163 353 163 46 1 104 -6 135 -15z"/>
</g>
</svg>
